<?xml version="1.0" encoding="UTF-8" standalone="no"?><!DOCTYPE svg PUBLIC "-//W3C//DTD SVG 1.1//EN" "http://www.w3.org/Graphics/SVG/1.1/DTD/svg11.dtd"><svg width="100%" height="100%" viewBox="0 0 1667 1667" version="1.1" xmlns="http://www.w3.org/2000/svg" xmlns:xlink="http://www.w3.org/1999/xlink" xml:space="preserve" xmlns:serif="http://www.serif.com/" style="fill-rule:evenodd;clip-rule:evenodd;stroke-linejoin:round;stroke-miterlimit:2;"><g><path d="M456.104,0l0,562.22l-109.792,135.736l-0,-594.194l-236.502,0l0,1163.98l9.6,-11.948l54.099,-66.756l87.207,62.888l-54.099,66.944l-53.918,66.772l-152.699,188.851l0,-1574.49l456.104,0Z" style="fill-rule:nonzero;"/><path d="M260.644,1251.96l-87.19,-62.973l960.93,-1188.92l574.011,0l-997.877,1234.62l-87.226,-62.973l863.145,-1067.92l-297.773,-0l-928.02,1148.16Z" style="fill-rule:nonzero;"/><path d="M1630.24,1666.67l-669.459,-0l-250.918,-220.825l-180.084,-158.416l39.502,-48.954l54.099,-66.756l87.189,62.887l-33.09,41.047l65.492,57.512l65.292,57.513l195.75,172.229l347.2,0l-398.618,-350.826l66.904,-82.743l610.741,537.332Z" style="fill-rule:nonzero;"/></g></svg>